<?xml version="1.0" encoding="utf-8"?>
<!-- Generator: Adobe Illustrator 27.3.1, SVG Export Plug-In . SVG Version: 6.00 Build 0)  -->
<svg version="1.1" id="レイヤー_1" xmlns="http://www.w3.org/2000/svg" xmlns:xlink="http://www.w3.org/1999/xlink" x="0px"
	 y="0px" viewBox="0 0 300 300" style="enable-background:new 0 0 300 300;" xml:space="preserve">
<style type="text/css">
	.st0{fill:none;stroke:#231815;stroke-miterlimit:10;}
	.st1{fill:#231815;stroke:#231815;stroke-miterlimit:10;}
	.st2{fill:#FFFFFF;stroke:#231815;stroke-miterlimit:10;}
	.st3{fill:#FFFFFF;}
</style>
<polygon class="st0" points="24.67,202.5 24.67,246.85 82.31,246.85 82.31,238.97 35.1,238.97 35.1,202.5 "/>
<polygon class="st0" points="220.65,44.82 275,44.82 275,87.2 267.31,87.2 267.31,53.2 220.65,53.2 "/>
<path class="st1" d="M46.63,72.41v80.82c0,0,29.64-2.47,29.64,29.56S62,219.26,46.63,220.74c0.55,9.36,0,13.31,0,13.31
	s47.76,1.47,45.01-49.28s-28-48.78-29.1-50.76c1.65-25.13,1.37-47.06,1.37-47.06l31.02,0.25V72.41H46.63z"/>
<polygon class="st1" points="116.9,72.41 89.2,166.68 90.19,171.51 129.52,171.51 149.1,234.05 169.6,234.05 "/>
<polygon class="st2" points="117.45,115.28 108.66,156.68 129.4,156.68 "/>
<path class="st1" d="M186.62,72.41h20.86c0,0-25.25,21.69-25.8,80.82c-0.55,59.13,25.8,84.26,25.8,84.26h-21.41
	c0,0-18.12-37.94-16.47-84.26C171.25,106.91,186.62,72.41,186.62,72.41z"/>
<path class="st1" d="M220.65,72.41h19.21c0,0,17.57,37.45,18.12,82.54c0.55,45.09-18.66,82.54-18.66,82.54h-22.51
	c0,0,31.84-43.36,31.02-82.54S220.65,72.41,220.65,72.41z"/>
<g>
	<g>
		<polygon class="st3" points="160.82,148.33 160.82,128.1 149.1,128.1 149.1,148.33 108.66,148.33 108.66,159.14 149.1,159.14 
			149.1,200.79 161.36,200.79 161.36,159.63 201.99,159.63 201.99,148.33 		"/>
	</g>
	<g>
		<polygon class="st0" points="160.82,148.33 160.82,128.1 149.1,128.1 149.1,148.33 108.66,148.33 108.66,159.14 149.1,159.14 
			149.1,200.79 161.36,200.79 161.36,159.63 201.99,159.63 201.99,148.33 		"/>
	</g>
</g>
</svg>
