<?xml version="1.0" encoding="utf-8"?>
<!-- Generator: Adobe Illustrator 27.3.1, SVG Export Plug-In . SVG Version: 6.00 Build 0)  -->
<svg version="1.1" id="レイヤー_1" xmlns="http://www.w3.org/2000/svg" xmlns:xlink="http://www.w3.org/1999/xlink" x="0px"
	 y="0px" viewBox="0 0 300 300" style="enable-background:new 0 0 300 300;" xml:space="preserve">
<style type="text/css">
	.st0{fill:none;stroke:#231815;stroke-miterlimit:10;}
	.st1{fill:#231815;stroke:#231815;stroke-miterlimit:10;}
	.st2{fill:#FAE9B7;}
	.st3{fill:#075A30;}
	.st4{fill:#231815;}
</style>
<line class="st0" x1="235.67" y1="52.18" x2="201.02" y2="93.99"/>
<line class="st0" x1="172.38" y1="124.92" x2="106.23" y2="205.67"/>
<path class="st0" d="M48.38,115.18c0,0,41.24,46.39,49.83,92.78c0,0.57-30.71-62.47-49.83-77.03"/>
<path class="st0" d="M53.25,154.99c0,0,20.25,14.51,38.66,56.41"/>
<path class="st0" d="M46.95,170.74c1.15,1.15,32.07,17.47,38.66,34.94"/>
<line class="st0" x1="139.31" y1="54.19" x2="147.18" y2="59.72"/>
<line class="st0" x1="154.91" y1="65.64" x2="161.5" y2="71.08"/>
<line class="st0" x1="172.38" y1="78.81" x2="180.4" y2="85.69"/>
<line class="st0" x1="173.53" y1="52.18" x2="179.25" y2="56.95"/>
<line class="st0" x1="188.99" y1="63.64" x2="196.44" y2="69.65"/>
<path class="st1" d="M44.09,195.37c0,0,45.25,17.75,38.95,38.66c0.57,0.86,10.02,6.59,10.02,6.59s6.59-8.02,20.33-1.43
	c13.75,6.59,27.16,10.02,39.93,20.62c0.45,1.15,17.06,0,17.06,0s-19.47-24.05-75.89-35.51c0.29,0-27.78-38.37-50.4-41.09
	C44.09,183.91,44.09,195.37,44.09,195.37z"/>
<line class="st1" x1="180.4" y1="230.02" x2="186.99" y2="233.74"/>
<polygon class="st2" points="186.99,236.6 233.66,239.75 238.82,246.34 232.8,258.65 219.92,260.31 "/>
<path class="st3" d="M256,246l-22.34-6.25l5.15,6.59l-6.01,12.31l-12.89,1.65l17.71,0.64C237.63,260.94,256,265,256,246z"/>
<path class="st4" d="M186.99,236.6l7.47,0.5c0,0,0.64,5.33-1.74,3.62C190.34,239.01,186.99,236.6,186.99,236.6z"/>
<path class="st0" d="M244.11,260.94H55.98c-6.57,0-11.89-5.32-11.89-11.89V60.92c0-6.57,5.32-11.89,11.89-11.89h188.13
	c6.57,0,11.89,5.32,11.89,11.89v188.13C256,255.62,250.68,260.94,244.11,260.94z"/>
</svg>
