<?xml version="1.0" encoding="utf-8"?>
<!-- Generator: Adobe Illustrator 27.3.1, SVG Export Plug-In . SVG Version: 6.00 Build 0)  -->
<svg version="1.1" id="レイヤー_1" xmlns="http://www.w3.org/2000/svg" xmlns:xlink="http://www.w3.org/1999/xlink" x="0px"
	 y="0px" viewBox="0 0 300 300" style="enable-background:new 0 0 300 300;" xml:space="preserve">
<style type="text/css">
	.st0{fill:#F5C049;stroke:#B27F1D;stroke-miterlimit:10;}
	.st1{fill:#EC7224;stroke:#B27F1D;stroke-miterlimit:10;}
</style>
<path class="st0" d="M31.57,156.15c0,0,51.11,63.45,113.16,33.98c0.45,0.45-8.48,29.91-20.54,37.5
	c0.45,0.45-76.34,16.52-100.89-41.07c0.45,0.45,13.84,2.23,16.52-1.79C40.27,184.78,31.57,156.15,31.57,156.15z"/>
<path class="st0" d="M95.98,54.36c0,0,4.88-16.51,14.7-17.85c0.89,0,95.21-11.11,122.89,142.47c0.45,1.34-29.02-22.82-29.02-22.82
	S174.55,75.79,95.98,54.36z"/>
<path class="st0" d="M210.36,181.21c0,0,19.64,15.63,20.98,25c0.45,0-8.04,4.46-15.18-3.13
	C217.05,203.08,210.36,181.21,210.36,181.21z"/>
<path class="st0" d="M174.64,151.74c0,0,57.14-11.35,105.36,103.03c0,0.09-18.3-7.94-18.3-7.94s0,21.43-8.04,23.21
	c5.86,4.38-15.29-97.11-70.98-99.55C182.68,170.94,174.64,151.74,174.64,151.74z"/>
<path class="st1" d="M106.49,37.89C106.49,37.89,107.53,37.19,106.49,37.89c-7.12,4.81-38.2,24.78-40.15,41.53
	c0.45,0.45-10.61,15.4,18.85,67.18c0,0,28.28,42.34,22.01,51.23c0.42-0.01,33.97,0.93,37.08-6.94c2.1-3.15-17.05-32.92-42.97-75.09
	C101.32,115.8,75.24,70.72,106.49,37.89z"/>
<path class="st1" d="M174.64,151.74c0,0-12.05,12.05-12.5,18.3c-2.68,8.98,8.39,44.11,50.89,54.02c0.97,0.23,18.3-17.86,18.3-17.86
	S194.73,207.51,174.64,151.74z"/>
</svg>
