<?xml version="1.0" encoding="utf-8"?>
<!-- Generator: Adobe Illustrator 27.3.1, SVG Export Plug-In . SVG Version: 6.00 Build 0)  -->
<svg version="1.1" id="レイヤー_1" xmlns="http://www.w3.org/2000/svg" xmlns:xlink="http://www.w3.org/1999/xlink" x="0px"
	 y="0px" viewBox="0 0 1920 1080" style="enable-background:new 0 0 1920 1080;" xml:space="preserve">
<style type="text/css">
	.st0{fill:none;stroke:#231815;stroke-miterlimit:10;}
	.st1{fill:#231815;stroke:#231815;stroke-miterlimit:10;}
	.st2{fill:#FFFFFF;stroke:#231815;stroke-miterlimit:10;}
	.st3{fill:#FFFFFF;}
</style>
<polygon class="st0" points="38.43,123.01 38.43,148.62 71.72,148.62 71.72,144.07 44.45,144.07 44.45,123.01 "/>
<polygon class="st0" points="151.61,31.94 183,31.94 183,56.42 178.56,56.42 178.56,36.78 151.61,36.78 "/>
<path class="st1" d="M51.11,47.88v46.67c0,0,17.12-1.42,17.12,17.07s-8.24,21.06-17.12,21.91c0.32,5.41,0,7.69,0,7.69
	s27.58,0.85,26-28.46S60.94,84.59,60.3,83.45c0.95-14.51,0.79-27.18,0.79-27.18l17.91,0.14v-8.54H51.11z"/>
<polygon class="st1" points="91.69,47.88 75.69,102.32 76.27,105.11 98.98,105.11 110.29,141.23 122.13,141.23 "/>
<polygon class="st2" points="92.01,72.64 86.93,96.54 98.91,96.54 "/>
<path class="st1" d="M131.96,47.88H144c0,0-14.58,12.52-14.9,46.67s14.9,48.66,14.9,48.66h-12.36c0,0-10.46-21.91-9.51-48.66
	S131.96,47.88,131.96,47.88z"/>
<path class="st1" d="M151.61,47.88h11.1c0,0,10.15,21.63,10.46,47.67s-10.78,47.67-10.78,47.67h-13c0,0,18.39-25.04,17.91-47.67
	S151.61,47.88,151.61,47.88z"/>
<g>
	<g>
		<polygon class="st3" points="117.05,91.72 117.05,80.04 110.29,80.04 110.29,91.72 86.93,91.72 86.93,97.97 110.29,97.97 
			110.29,122.02 117.37,122.02 117.37,98.25 140.83,98.25 140.83,91.72 		"/>
	</g>
	<g>
		<polygon class="st0" points="117.05,91.72 117.05,80.04 110.29,80.04 110.29,91.72 86.93,91.72 86.93,97.97 110.29,97.97 
			110.29,122.02 117.37,122.02 117.37,98.25 140.83,98.25 140.83,91.72 		"/>
	</g>
</g>
</svg>
